<svg width="170" height="35" viewBox="0 0 170 35" fill="none" xmlns="http://www.w3.org/2000/svg">
<g clip-path="url(#clip0_0_325)">
<path d="M159.062 0H145.938C139.898 0 135 4.89781 135 10.9375V24.0625C135 30.1022 139.898 35 145.938 35H159.062C165.102 35 170 30.1022 170 24.0625V10.9375C170 4.89781 165.102 0 159.062 0ZM166.719 24.0625C166.719 28.2844 163.284 31.7188 159.062 31.7188H145.938C141.716 31.7188 138.281 28.2844 138.281 24.0625V10.9375C138.281 6.71563 141.716 3.28125 145.938 3.28125H159.062C163.284 3.28125 166.719 6.71563 166.719 10.9375V24.0625Z" fill="url(#paint0_linear_0_325)"/>
<path d="M152.5 8.75C147.668 8.75 143.75 12.6678 143.75 17.5C143.75 22.3322 147.668 26.25 152.5 26.25C157.332 26.25 161.25 22.3322 161.25 17.5C161.25 12.6678 157.332 8.75 152.5 8.75ZM152.5 22.9688C149.486 22.9688 147.031 20.5144 147.031 17.5C147.031 14.4834 149.486 12.0312 152.5 12.0312C155.514 12.0312 157.969 14.4834 157.969 17.5C157.969 20.5144 155.514 22.9688 152.5 22.9688Z" fill="url(#paint1_linear_0_325)"/>
<path d="M161.906 9.25997C162.55 9.25997 163.072 8.73796 163.072 8.09404C163.072 7.45011 162.55 6.9281 161.906 6.9281C161.262 6.9281 160.74 7.45011 160.74 8.09404C160.74 8.73796 161.262 9.25997 161.906 9.25997Z" fill="url(#paint2_linear_0_325)"/>
</g>
<g clip-path="url(#clip1_0_325)">
<path d="M119.925 5.02979C116.6 1.81562 112.225 0 107.566 0C94.1927 0 85.7956 14.4885 92.4733 26.0138L90 35L99.2385 32.5908C103.264 34.7652 106.561 34.5727 107.574 34.701C123.081 34.701 130.8 15.941 119.903 5.08667L119.925 5.02979Z" fill="#ECEFF1"/>
<path d="M107.598 31.7203L107.589 31.7188H107.566C102.925 31.7188 99.9604 29.5211 99.6688 29.3942L94.2 30.8161L95.6656 25.5005L95.3171 24.9536C93.8733 22.6553 93.1063 20.0084 93.1063 17.2828C93.1063 4.45965 108.776 -1.95264 117.844 7.1109C126.89 16.0796 120.539 31.7203 107.598 31.7203Z" fill="#4CAF50"/>
<path d="M115.531 20.8644L115.518 20.9738C115.079 20.755 112.941 19.7094 112.543 19.565C111.649 19.234 111.901 19.5125 110.185 21.4784C109.93 21.7628 109.676 21.7846 109.243 21.5878C108.805 21.369 107.401 20.9096 105.738 19.4221C104.443 18.2628 103.574 16.8409 103.318 16.4034C102.89 15.6655 103.784 15.5605 104.598 14.0205C104.744 13.7142 104.669 13.4736 104.561 13.2563C104.452 13.0375 103.581 10.8938 103.217 10.0392C102.867 9.18754 102.507 9.29546 102.237 9.29546C101.397 9.22254 100.783 9.23421 100.242 9.79713C97.8881 12.3842 98.4817 15.053 100.496 17.8909C104.454 23.0709 106.562 24.0246 110.418 25.3488C111.459 25.6798 112.409 25.6332 113.16 25.5253C113.997 25.3925 115.737 24.4738 116.1 23.4457C116.472 22.4175 116.472 21.5644 116.362 21.3675C116.254 21.1707 115.969 21.0613 115.531 20.8644Z" fill="#FAFAFA"/>
</g>
<g clip-path="url(#clip2_0_325)">
<path d="M75.625 0H49.375C46.9622 0 45 1.96219 45 4.375V30.625C45 33.0378 46.9622 35 49.375 35H75.625C78.0378 35 80 33.0378 80 30.625V4.375C80 1.96219 78.0378 0 75.625 0Z" fill="#1976D2"/>
<path d="M74.5312 17.5H69.0625V13.125C69.0625 11.9175 70.0425 12.0312 71.25 12.0312H73.4375V6.5625H69.0625C65.4378 6.5625 62.5 9.50031 62.5 13.125V17.5H58.125V22.9688H62.5V35H69.0625V22.9688H72.3438L74.5312 17.5Z" fill="#FAFAFA"/>
</g>
<g clip-path="url(#clip3_0_325)">
<path d="M34.2789 9.09807C33.8754 7.59871 32.6933 6.41684 31.1942 6.0131C28.4553 5.26355 17.4997 5.26355 17.4997 5.26355C17.4997 5.26355 6.54431 5.26355 3.80541 5.98452C2.33516 6.388 1.12419 7.59897 0.720708 9.09807C0 11.8367 0 17.5164 0 17.5164C0 17.5164 0 23.2246 0.720708 25.9347C1.12445 27.4338 2.30632 28.6159 3.80568 29.0197C6.57315 29.7692 17.4999 29.7692 17.4999 29.7692C17.4999 29.7692 28.4553 29.7692 31.1942 29.0482C32.6935 28.6448 33.8754 27.4626 34.2791 25.9635C34.9999 23.2246 34.9999 17.5452 34.9999 17.5452C34.9999 17.5452 35.0287 11.8367 34.2789 9.09807Z" fill="#FF0000"/>
<path d="M14.0116 22.764L23.1218 17.5169L14.0116 12.2698V22.764Z" fill="white"/>
</g>
<defs>
<linearGradient id="paint0_linear_0_325" x1="138.204" y1="31.7963" x2="166.796" y2="3.2037" gradientUnits="userSpaceOnUse">
<stop stop-color="#FFC107"/>
<stop offset="0.507" stop-color="#F44336"/>
<stop offset="0.99" stop-color="#9C27B0"/>
</linearGradient>
<linearGradient id="paint1_linear_0_325" x1="146.313" y1="23.687" x2="158.687" y2="11.313" gradientUnits="userSpaceOnUse">
<stop stop-color="#FFC107"/>
<stop offset="0.507" stop-color="#F44336"/>
<stop offset="0.99" stop-color="#9C27B0"/>
</linearGradient>
<linearGradient id="paint2_linear_0_325" x1="161.082" y1="8.91861" x2="162.731" y2="7.26967" gradientUnits="userSpaceOnUse">
<stop stop-color="#FFC107"/>
<stop offset="0.507" stop-color="#F44336"/>
<stop offset="0.99" stop-color="#9C27B0"/>
</linearGradient>
<clipPath id="clip0_0_325">
<rect width="35" height="35" fill="white" transform="translate(135)"/>
</clipPath>
<clipPath id="clip1_0_325">
<rect width="35" height="35" fill="white" transform="translate(90)"/>
</clipPath>
<clipPath id="clip2_0_325">
<rect width="35" height="35" fill="white" transform="translate(45)"/>
</clipPath>
<clipPath id="clip3_0_325">
<rect width="35" height="35" fill="white"/>
</clipPath>
</defs>
</svg>
