<svg width="126" height="58" viewBox="0 0 126 58" fill="none" xmlns="http://www.w3.org/2000/svg">
<path d="M59.3 20.875C60.3667 21.1917 61.1833 21.7083 61.75 22.425C62.3167 23.1417 62.6 24.025 62.6 25.075C62.6 26.625 62.0083 27.8333 60.825 28.7C59.6583 29.5667 57.9833 30 55.8 30H47.175V12.5H55.325C57.3583 12.5 58.9417 12.8917 60.075 13.675C61.2083 14.4583 61.775 15.575 61.775 17.025C61.775 17.8917 61.5583 18.6583 61.125 19.325C60.6917 19.975 60.0833 20.4917 59.3 20.875ZM51.2 19.75H54.975C55.8583 19.75 56.525 19.575 56.975 19.225C57.425 18.8583 57.65 18.325 57.65 17.625C57.65 16.9417 57.4167 16.4167 56.95 16.05C56.5 15.6833 55.8417 15.5 54.975 15.5H51.2V19.75ZM55.65 27C57.55 27 58.5 26.25 58.5 24.75C58.5 23.3 57.55 22.575 55.65 22.575H51.2V27H55.65ZM65.5029 16.55H69.3779V24.55L75.9279 16.55H79.5029V30H75.6279V22L69.1029 30H65.5029V16.55ZM89.652 30.2C88.2186 30.2 86.927 29.9083 85.777 29.325C84.6436 28.725 83.752 27.9 83.102 26.85C82.4686 25.8 82.152 24.6083 82.152 23.275C82.152 21.9417 82.4686 20.75 83.102 19.7C83.752 18.65 84.6436 17.8333 85.777 17.25C86.927 16.65 88.2186 16.35 89.652 16.35C91.0686 16.35 92.302 16.65 93.352 17.25C94.4186 17.8333 95.1936 18.675 95.677 19.775L92.652 21.4C91.952 20.1667 90.9436 19.55 89.627 19.55C88.6103 19.55 87.7686 19.8833 87.102 20.55C86.4353 21.2167 86.102 22.125 86.102 23.275C86.102 24.425 86.4353 25.3333 87.102 26C87.7686 26.6667 88.6103 27 89.627 27C90.9603 27 91.9686 26.3833 92.652 25.15L95.677 26.8C95.1936 27.8667 94.4186 28.7 93.352 29.3C92.302 29.9 91.0686 30.2 89.652 30.2ZM104.176 30.2C102.759 30.2 101.484 29.9083 100.351 29.325C99.2343 28.725 98.3593 27.9 97.726 26.85C97.0926 25.8 96.776 24.6083 96.776 23.275C96.776 21.9417 97.0926 20.75 97.726 19.7C98.3593 18.65 99.2343 17.8333 100.351 17.25C101.484 16.65 102.759 16.35 104.176 16.35C105.593 16.35 106.859 16.65 107.976 17.25C109.093 17.8333 109.968 18.65 110.601 19.7C111.234 20.75 111.551 21.9417 111.551 23.275C111.551 24.6083 111.234 25.8 110.601 26.85C109.968 27.9 109.093 28.725 107.976 29.325C106.859 29.9083 105.593 30.2 104.176 30.2ZM104.176 27C105.176 27 105.993 26.6667 106.626 26C107.276 25.3167 107.601 24.4083 107.601 23.275C107.601 22.1417 107.276 21.2417 106.626 20.575C105.993 19.8917 105.176 19.55 104.176 19.55C103.176 19.55 102.351 19.8917 101.701 20.575C101.051 21.2417 100.726 22.1417 100.726 23.275C100.726 24.4083 101.051 25.3167 101.701 26C102.351 26.6667 103.176 27 104.176 27ZM125.045 19.75H120.495V30H116.62V19.75H112.07V16.55H125.045V19.75Z" fill="black"/>
<path d="M16.6665 49.9644C16.6665 49.188 16.8179 48.4897 17.1206 47.8696C17.4282 47.2495 17.853 46.771 18.395 46.4341C18.9419 46.0972 19.5645 45.9287 20.2627 45.9287C21.3418 45.9287 22.2134 46.3022 22.8774 47.0493C23.5464 47.7964 23.8809 48.79 23.8809 50.0303V50.1255C23.8809 50.897 23.7319 51.5903 23.4341 52.2056C23.1411 52.8159 22.7188 53.292 22.167 53.6338C21.6201 53.9756 20.9902 54.1465 20.2773 54.1465C19.2031 54.1465 18.3315 53.7729 17.6626 53.0259C16.9985 52.2788 16.6665 51.29 16.6665 50.0596V49.9644ZM18.0288 50.1255C18.0288 51.0044 18.2314 51.71 18.6367 52.2422C19.0469 52.7744 19.5938 53.0405 20.2773 53.0405C20.9658 53.0405 21.5127 52.772 21.918 52.2349C22.3232 51.6929 22.5259 50.936 22.5259 49.9644C22.5259 49.0952 22.3184 48.3921 21.9033 47.855C21.4932 47.313 20.9463 47.042 20.2627 47.042C19.5938 47.042 19.0542 47.3081 18.644 47.8403C18.2339 48.3726 18.0288 49.1343 18.0288 50.1255ZM32.062 54H30.707V47.1958H27.0596V54H25.6973V46.0752H32.062V54ZM40.126 47.1738H37.4673V54H36.1123V47.1738H33.5049V46.0752H40.126V47.1738ZM40.7778 49.9644C40.7778 49.188 40.9292 48.4897 41.2319 47.8696C41.5396 47.2495 41.9644 46.771 42.5063 46.4341C43.0532 46.0972 43.6758 45.9287 44.374 45.9287C45.4531 45.9287 46.3247 46.3022 46.9888 47.0493C47.6577 47.7964 47.9922 48.79 47.9922 50.0303V50.1255C47.9922 50.897 47.8433 51.5903 47.5454 52.2056C47.2524 52.8159 46.8301 53.292 46.2783 53.6338C45.7314 53.9756 45.1016 54.1465 44.3887 54.1465C43.3145 54.1465 42.4429 53.7729 41.7739 53.0259C41.1099 52.2788 40.7778 51.29 40.7778 50.0596V49.9644ZM42.1401 50.1255C42.1401 51.0044 42.3428 51.71 42.748 52.2422C43.1582 52.7744 43.7051 53.0405 44.3887 53.0405C45.0771 53.0405 45.624 52.772 46.0293 52.2349C46.4346 51.6929 46.6372 50.936 46.6372 49.9644C46.6372 49.0952 46.4297 48.3921 46.0146 47.855C45.6045 47.313 45.0576 47.042 44.374 47.042C43.7051 47.042 43.1655 47.3081 42.7554 47.8403C42.3452 48.3726 42.1401 49.1343 42.1401 50.1255ZM49.8159 54V46.0752H52.9067C53.9614 46.0752 54.7695 46.2607 55.3311 46.6318C55.8975 46.998 56.1807 47.5376 56.1807 48.2505C56.1807 48.6167 56.0708 48.9487 55.8511 49.2466C55.6313 49.5396 55.3066 49.7642 54.877 49.9204C55.3555 50.0327 55.7388 50.2524 56.0269 50.5796C56.3198 50.9067 56.4663 51.2974 56.4663 51.7515C56.4663 52.479 56.1978 53.0356 55.6606 53.4214C55.1284 53.8071 54.374 54 53.3975 54H49.8159ZM51.1709 50.521V52.9087H53.4121C53.9785 52.9087 54.4009 52.8037 54.6792 52.5938C54.9624 52.3838 55.104 52.0884 55.104 51.7075C55.104 50.9165 54.5229 50.521 53.3608 50.521H51.1709ZM51.1709 49.437H52.9214C54.1909 49.437 54.8257 49.0659 54.8257 48.3237C54.8257 47.5815 54.2251 47.1982 53.0239 47.1738H51.1709V49.437ZM59.7402 48.8071H61.7983C62.6968 48.8169 63.4072 49.0513 63.9297 49.5103C64.4521 49.9692 64.7134 50.5918 64.7134 51.3779C64.7134 52.1689 64.4448 52.8037 63.9077 53.2822C63.3706 53.7607 62.6479 54 61.7397 54H58.3853V46.0752H59.7402V48.8071ZM67.5405 54H66.1782V46.0752H67.5405V54ZM59.7402 49.9131V52.894H61.7544C62.2622 52.894 62.6553 52.7646 62.9336 52.5059C63.2119 52.2422 63.3511 51.8833 63.3511 51.4292C63.3511 50.9897 63.2144 50.6309 62.9409 50.3525C62.6724 50.0693 62.2939 49.9229 61.8057 49.9131H59.7402ZM75.0332 46.0752H76.3882V54H75.0332V48.2212L71.3784 54H70.0234V46.0752H71.3784V51.8613L75.0332 46.0752ZM75.3994 43.1895C75.3994 43.7803 75.1968 44.2563 74.7915 44.6177C74.3911 44.9741 73.8638 45.1523 73.2095 45.1523C72.5552 45.1523 72.0254 44.9717 71.6201 44.6104C71.2148 44.249 71.0122 43.7754 71.0122 43.1895H72.1182C72.1182 43.5312 72.2109 43.7998 72.3965 43.9951C72.582 44.1855 72.853 44.2808 73.2095 44.2808C73.5513 44.2808 73.8174 44.1855 74.0078 43.9951C74.2031 43.8047 74.3008 43.5361 74.3008 43.1895H75.3994ZM85.4629 53.0405C85.9463 53.0405 86.3687 52.894 86.73 52.6011C87.0913 52.3081 87.2915 51.9419 87.3306 51.5024H88.6123C88.5879 51.9565 88.4316 52.3887 88.1436 52.7988C87.8555 53.209 87.4697 53.5361 86.9863 53.7803C86.5078 54.0244 86 54.1465 85.4629 54.1465C84.3838 54.1465 83.5244 53.7876 82.8848 53.0698C82.25 52.3472 81.9326 51.3608 81.9326 50.1108V49.8838C81.9326 49.1123 82.0742 48.4263 82.3574 47.8257C82.6406 47.2251 83.0459 46.7588 83.5732 46.4268C84.1055 46.0947 84.7329 45.9287 85.4556 45.9287C86.3442 45.9287 87.0815 46.1948 87.6675 46.7271C88.2583 47.2593 88.5732 47.9502 88.6123 48.7998H87.3306C87.2915 48.2871 87.0962 47.8672 86.7446 47.54C86.3979 47.208 85.9683 47.042 85.4556 47.042C84.7671 47.042 84.2324 47.291 83.8516 47.7891C83.4756 48.2822 83.2876 48.9976 83.2876 49.9351V50.1914C83.2876 51.1045 83.4756 51.8076 83.8516 52.3008C84.2275 52.7939 84.7646 53.0405 85.4629 53.0405ZM92.604 50.6235H91.6152V54H90.2529V46.0752H91.6152V49.4297H92.5015L95.1675 46.0752H96.8081L93.6733 49.8838L97.0718 54H95.3506L92.604 50.6235ZM104.733 46.0752V54H103.371V47.1958H100.675L100.514 50.1621C100.426 51.5244 100.197 52.4985 99.8257 53.0845C99.4595 53.6704 98.876 53.9756 98.0752 54H97.5332V52.8062L97.9214 52.7769C98.3608 52.728 98.6758 52.4741 98.8662 52.0151C99.0566 51.5562 99.1787 50.7065 99.2324 49.4663L99.3789 46.0752H104.733ZM111.801 54C111.723 53.8438 111.659 53.5654 111.61 53.165C110.98 53.8193 110.229 54.1465 109.354 54.1465C108.573 54.1465 107.931 53.9268 107.428 53.4873C106.93 53.043 106.681 52.4814 106.681 51.8027C106.681 50.9775 106.994 50.3379 107.619 49.8838C108.249 49.4248 109.132 49.1953 110.27 49.1953H111.588V48.5728C111.588 48.0991 111.447 47.7231 111.164 47.4448C110.88 47.1616 110.463 47.02 109.911 47.02C109.428 47.02 109.022 47.1421 108.695 47.3862C108.368 47.6304 108.205 47.9258 108.205 48.2725H106.842C106.842 47.877 106.981 47.4961 107.26 47.1299C107.543 46.7588 107.924 46.4658 108.402 46.251C108.886 46.0361 109.416 45.9287 109.992 45.9287C110.905 45.9287 111.62 46.1582 112.138 46.6172C112.655 47.0713 112.924 47.6987 112.943 48.4995V52.147C112.943 52.8745 113.036 53.4531 113.222 53.8828V54H111.801ZM109.552 52.9673C109.977 52.9673 110.38 52.8574 110.761 52.6377C111.142 52.418 111.417 52.1323 111.588 51.7808V50.1548H110.526C108.866 50.1548 108.036 50.6406 108.036 51.6123C108.036 52.0371 108.178 52.3691 108.461 52.6084C108.744 52.8477 109.108 52.9673 109.552 52.9673ZM115.001 52.894L115.47 52.3154C115.998 51.6318 116.298 50.6064 116.371 49.2393L116.496 46.0752H121.601V52.894H122.619V56.3291H121.264V54H115.734V56.3291H114.379L114.386 52.894H115.001ZM116.605 52.894H120.246V47.3276H117.807L117.726 49.2173C117.643 50.7944 117.27 52.02 116.605 52.894Z" fill="black"/>
<g clip-path="url(#clip0_0_454)">
<path d="M32.4047 29.4085V14.1902L7.97876 15.2376V30.456C7.97868 30.8047 8.15126 31.1534 8.49642 31.3527L18.1725 36.9392C18.8607 37.3365 19.7085 37.3365 20.3967 36.9392L31.887 30.3053C32.2322 30.106 32.4048 29.7573 32.4047 29.4085Z" fill="url(#paint0_linear_0_454)"/>
<path d="M39.4005 17.8683L33.6462 14.546C33.4563 14.4364 33.4556 14.1627 33.6448 14.052L39.4825 10.6397C40.1601 10.2485 40.1754 9.27593 39.5105 8.86359L30.2112 3.09687C29.5146 2.66492 28.6369 2.65109 27.927 3.06093L22.0663 6.48593C21.5329 6.79765 20.8734 6.79937 20.3384 6.49047L14.4799 3.10812C13.6577 2.63336 12.6409 2.64937 11.8339 3.14976L1.06156 9.83C0.291322 10.3077 0.309057 11.4343 1.09398 11.8875L6.47648 14.9951C6.66672 15.1048 6.66695 15.3793 6.47703 15.4895L0.51765 18.9473C-0.172428 19.3458 -0.172428 20.3418 0.51765 20.7402L10.1941 26.327C10.8823 26.7242 11.7301 26.7242 12.4182 26.327L18.0613 23.0527C18.5939 22.7437 19.2512 22.743 19.7845 23.0509L25.6148 26.4169C26.412 26.8772 27.3941 26.8772 28.1913 26.4169L39.4006 19.9452C40.1999 19.4836 40.1999 18.3298 39.4005 17.8683Z" fill="url(#paint1_linear_0_454)"/>
<path d="M8.49635 14.3411L19.9867 7.70719C20.6749 7.30984 21.5227 7.30984 22.2109 7.70719L31.887 13.2937C32.5772 13.6922 32.5772 14.6884 31.887 15.0869L20.3967 21.7208C19.7085 22.1181 18.8606 22.1181 18.1724 21.7208L8.49635 16.1343C7.80619 15.7358 7.80619 14.7396 8.49635 14.3411Z" fill="url(#paint2_linear_0_454)"/>
<path d="M31.5872 27.6254L30.5018 25.9973L29.4164 28.8787L29.9879 28.5487V29.5248L31.0156 28.9315V27.9554L31.5872 27.6254Z" fill="#5D3645"/>
<path d="M31.5872 28.8464L29.4164 30.0998V30.6278L31.5872 29.3744V28.8464Z" fill="#5D3645"/>
</g>
<defs>
<linearGradient id="paint0_linear_0_454" x1="17.3324" y1="25.7137" x2="20.6877" y2="25.7137" gradientUnits="userSpaceOnUse">
<stop stop-color="#CC8241"/>
<stop offset="1" stop-color="#DEA861"/>
</linearGradient>
<linearGradient id="paint1_linear_0_454" x1="0.124057" y1="2.62414" x2="31.9999" y2="22.0641" gradientUnits="userSpaceOnUse">
<stop stop-color="#DEA861"/>
<stop offset="0.328" stop-color="#E3B67B"/>
<stop offset="0.7518" stop-color="#E9C596"/>
<stop offset="1" stop-color="#EBCBA0"/>
</linearGradient>
<linearGradient id="paint2_linear_0_454" x1="23.6556" y1="14.714" x2="12.3435" y2="14.714" gradientUnits="userSpaceOnUse">
<stop stop-color="#CC8241"/>
<stop offset="1" stop-color="#DEA861"/>
</linearGradient>
<clipPath id="clip0_0_454">
<rect width="40" height="40" fill="white"/>
</clipPath>
</defs>
</svg>
