<svg width="187" height="42" viewBox="0 0 187 42" fill="none" xmlns="http://www.w3.org/2000/svg">
<path d="M73.8887 22.6191C73.8887 21.584 74.0905 20.653 74.4941 19.8262C74.9043 18.9993 75.4707 18.3613 76.1934 17.9121C76.9225 17.4629 77.7526 17.2383 78.6836 17.2383C80.1224 17.2383 81.2845 17.7363 82.1699 18.7324C83.0618 19.7285 83.5078 21.0534 83.5078 22.707V22.834C83.5078 23.8626 83.3092 24.7871 82.9121 25.6074C82.5215 26.4212 81.9583 27.056 81.2227 27.5117C80.4935 27.9674 79.6536 28.1953 78.7031 28.1953C77.2708 28.1953 76.1087 27.6973 75.2168 26.7012C74.3314 25.7051 73.8887 24.3867 73.8887 22.7461V22.6191ZM75.7051 22.834C75.7051 24.0059 75.9753 24.9466 76.5156 25.6562C77.0625 26.3659 77.7917 26.7207 78.7031 26.7207C79.6211 26.7207 80.3503 26.3626 80.8906 25.6465C81.431 24.9238 81.7012 23.9147 81.7012 22.6191C81.7012 21.4603 81.4245 20.5228 80.8711 19.8066C80.3242 19.084 79.5951 18.7227 78.6836 18.7227C77.7917 18.7227 77.0723 19.0775 76.5254 19.7871C75.9785 20.4967 75.7051 21.5124 75.7051 22.834ZM94.6992 22.834C94.6992 24.4421 94.3314 25.7376 93.5957 26.7207C92.86 27.7038 91.8639 28.1953 90.6074 28.1953C89.3249 28.1953 88.3158 27.7884 87.5801 26.9746V32.0625H85.7734V17.4336H87.4238L87.5117 18.6055C88.2474 17.694 89.2695 17.2383 90.5781 17.2383C91.8477 17.2383 92.8503 17.7168 93.5859 18.6738C94.3281 19.6309 94.6992 20.9622 94.6992 22.668V22.834ZM92.8926 22.6289C92.8926 21.4375 92.6387 20.4967 92.1309 19.8066C91.623 19.1165 90.9264 18.7715 90.041 18.7715C88.9473 18.7715 88.127 19.2565 87.5801 20.2266V25.2754C88.1204 26.2389 88.9473 26.7207 90.0605 26.7207C90.9264 26.7207 91.6133 26.3789 92.1211 25.6953C92.6354 25.0052 92.8926 23.9831 92.8926 22.6289ZM99.4551 14.875V17.4336H101.428V18.8301H99.4551V25.3828C99.4551 25.806 99.543 26.125 99.7188 26.3398C99.8945 26.5482 100.194 26.6523 100.617 26.6523C100.826 26.6523 101.112 26.6133 101.477 26.5352V28C101.001 28.1302 100.539 28.1953 100.09 28.1953C99.2826 28.1953 98.6738 27.9512 98.2637 27.4629C97.8535 26.9746 97.6484 26.2812 97.6484 25.3828V18.8301H95.7246V17.4336H97.6484V14.875H99.4551ZM119.152 23.0977C119.074 24.6732 118.684 25.9167 117.98 26.8281C117.277 27.7396 116.337 28.1953 115.158 28.1953C113.941 28.1953 113.16 27.6484 112.814 26.5547C112.463 27.1081 112.059 27.5215 111.604 27.7949C111.154 28.0618 110.689 28.1953 110.207 28.1953C109.283 28.1953 108.583 27.8177 108.107 27.0625C107.632 26.3073 107.456 25.2624 107.58 23.9277C107.678 22.8535 107.922 21.8965 108.312 21.0566C108.71 20.2103 109.217 19.5462 109.836 19.0645C110.461 18.5827 111.115 18.3418 111.799 18.3418C112.326 18.3418 112.798 18.4134 113.215 18.5566C113.632 18.6934 114.1 18.9668 114.621 19.377L114.113 24.7871C113.99 26.291 114.406 27.043 115.363 27.043C116.099 27.043 116.695 26.6784 117.15 25.9492C117.606 25.2201 117.854 24.2695 117.893 23.0977C118.016 20.5651 117.544 18.6348 116.477 17.3066C115.415 15.9785 113.798 15.3145 111.623 15.3145C110.314 15.3145 109.152 15.64 108.137 16.291C107.121 16.9355 106.32 17.8698 105.734 19.0938C105.148 20.3177 104.82 21.7305 104.748 23.332C104.67 24.9466 104.865 26.3496 105.334 27.541C105.803 28.7259 106.516 29.6309 107.473 30.2559C108.436 30.8874 109.598 31.2031 110.959 31.2031C111.545 31.2031 112.131 31.1315 112.717 30.9883C113.309 30.8451 113.801 30.6595 114.191 30.4316L114.553 31.5547C114.149 31.8086 113.612 32.0169 112.941 32.1797C112.277 32.3424 111.604 32.4238 110.92 32.4238C109.292 32.4238 107.893 32.056 106.721 31.3203C105.549 30.5911 104.67 29.5365 104.084 28.1562C103.505 26.7826 103.254 25.1745 103.332 23.332C103.41 21.5417 103.811 19.9336 104.533 18.5078C105.256 17.0755 106.236 15.972 107.473 15.1973C108.71 14.416 110.106 14.0254 111.662 14.0254C113.283 14.0254 114.673 14.39 115.832 15.1191C116.991 15.8483 117.854 16.8997 118.42 18.2734C118.986 19.6471 119.23 21.2552 119.152 23.0977ZM109.133 23.9277C109.042 24.8522 109.126 25.5618 109.387 26.0566C109.654 26.5514 110.074 26.7988 110.646 26.7988C111.037 26.7988 111.411 26.6328 111.77 26.3008C112.134 25.9688 112.434 25.4935 112.668 24.875L112.678 24.7871L113.127 19.875C112.762 19.6862 112.372 19.5918 111.955 19.5918C111.193 19.5918 110.562 19.9792 110.061 20.7539C109.566 21.5286 109.257 22.5866 109.133 23.9277ZM125.002 25.5488L127.619 17.4336H129.465L125.676 28H124.299L120.471 17.4336H122.316L125.002 25.5488ZM133.166 28H131.359V17.4336H133.166V28ZM131.213 14.6309C131.213 14.3379 131.301 14.0905 131.477 13.8887C131.659 13.6868 131.926 13.5859 132.277 13.5859C132.629 13.5859 132.896 13.6868 133.078 13.8887C133.26 14.0905 133.352 14.3379 133.352 14.6309C133.352 14.9238 133.26 15.168 133.078 15.3633C132.896 15.5586 132.629 15.6562 132.277 15.6562C131.926 15.6562 131.659 15.5586 131.477 15.3633C131.301 15.168 131.213 14.9238 131.213 14.6309ZM142.219 25.1973C142.219 24.709 142.033 24.3314 141.662 24.0645C141.298 23.791 140.656 23.5566 139.738 23.3613C138.827 23.166 138.101 22.9316 137.561 22.6582C137.027 22.3848 136.63 22.0592 136.369 21.6816C136.115 21.304 135.988 20.8548 135.988 20.334C135.988 19.4681 136.353 18.7357 137.082 18.1367C137.818 17.5378 138.755 17.2383 139.895 17.2383C141.092 17.2383 142.062 17.5475 142.805 18.166C143.553 18.7845 143.928 19.5755 143.928 20.5391H142.111C142.111 20.0443 141.9 19.6178 141.477 19.2598C141.06 18.9017 140.533 18.7227 139.895 18.7227C139.237 18.7227 138.723 18.8659 138.352 19.1523C137.98 19.4388 137.795 19.8132 137.795 20.2754C137.795 20.7116 137.967 21.0404 138.312 21.2617C138.658 21.4831 139.279 21.6947 140.178 21.8965C141.083 22.0983 141.815 22.3392 142.375 22.6191C142.935 22.8991 143.348 23.2376 143.615 23.6348C143.889 24.0254 144.025 24.5039 144.025 25.0703C144.025 26.0143 143.648 26.7728 142.893 27.3457C142.137 27.9121 141.158 28.1953 139.953 28.1953C139.107 28.1953 138.358 28.0456 137.707 27.7461C137.056 27.4466 136.545 27.0299 136.174 26.4961C135.809 25.9557 135.627 25.373 135.627 24.748H137.434C137.466 25.3535 137.707 25.8353 138.156 26.1934C138.612 26.5449 139.211 26.7207 139.953 26.7207C140.637 26.7207 141.184 26.584 141.594 26.3105C142.01 26.0306 142.219 25.6595 142.219 25.1973ZM145.9 22.6191C145.9 21.584 146.102 20.653 146.506 19.8262C146.916 18.9993 147.482 18.3613 148.205 17.9121C148.934 17.4629 149.764 17.2383 150.695 17.2383C152.134 17.2383 153.296 17.7363 154.182 18.7324C155.074 19.7285 155.52 21.0534 155.52 22.707V22.834C155.52 23.8626 155.321 24.7871 154.924 25.6074C154.533 26.4212 153.97 27.056 153.234 27.5117C152.505 27.9674 151.665 28.1953 150.715 28.1953C149.283 28.1953 148.12 27.6973 147.229 26.7012C146.343 25.7051 145.9 24.3867 145.9 22.7461V22.6191ZM147.717 22.834C147.717 24.0059 147.987 24.9466 148.527 25.6562C149.074 26.3659 149.803 26.7207 150.715 26.7207C151.633 26.7207 152.362 26.3626 152.902 25.6465C153.443 24.9238 153.713 23.9147 153.713 22.6191C153.713 21.4603 153.436 20.5228 152.883 19.8066C152.336 19.084 151.607 18.7227 150.695 18.7227C149.803 18.7227 149.084 19.0775 148.537 19.7871C147.99 20.4967 147.717 21.5124 147.717 22.834ZM160.236 14.875V17.4336H162.209V18.8301H160.236V25.3828C160.236 25.806 160.324 26.125 160.5 26.3398C160.676 26.5482 160.975 26.6523 161.398 26.6523C161.607 26.6523 161.893 26.6133 162.258 26.5352V28C161.783 28.1302 161.32 28.1953 160.871 28.1953C160.064 28.1953 159.455 27.9512 159.045 27.4629C158.635 26.9746 158.43 26.2812 158.43 25.3828V18.8301H156.506V17.4336H158.43V14.875H160.236ZM164.367 27.0527C164.367 26.7402 164.458 26.4798 164.641 26.2715C164.829 26.0632 165.109 25.959 165.48 25.959C165.852 25.959 166.132 26.0632 166.32 26.2715C166.516 26.4798 166.613 26.7402 166.613 27.0527C166.613 27.3522 166.516 27.6029 166.32 27.8047C166.132 28.0065 165.852 28.1074 165.48 28.1074C165.109 28.1074 164.829 28.0065 164.641 27.8047C164.458 27.6029 164.367 27.3522 164.367 27.0527ZM174.709 19.0547C174.436 19.0091 174.139 18.9863 173.82 18.9863C172.635 18.9863 171.831 19.4909 171.408 20.5V28H169.602V17.4336H171.359L171.389 18.6543C171.981 17.7103 172.821 17.2383 173.908 17.2383C174.26 17.2383 174.527 17.2839 174.709 17.375V19.0547ZM182.902 26.9551C182.199 27.7819 181.167 28.1953 179.807 28.1953C178.68 28.1953 177.821 27.8698 177.229 27.2188C176.643 26.5612 176.346 25.5911 176.34 24.3086V17.4336H178.146V24.2598C178.146 25.8613 178.798 26.6621 180.1 26.6621C181.48 26.6621 182.398 26.1478 182.854 25.1191V17.4336H184.66V28H182.941L182.902 26.9551Z" fill="white"/>
<path d="M8.80469 39H7.48535V34.3994H2.46777V39H1.15527V29.0469H2.46777V33.3262H7.48535V29.0469H8.80469V39ZM15.5039 39C15.431 38.8542 15.3717 38.5944 15.3262 38.2207C14.7383 38.8314 14.0365 39.1367 13.2207 39.1367C12.4915 39.1367 11.8923 38.9316 11.4229 38.5215C10.958 38.1068 10.7256 37.5827 10.7256 36.9492C10.7256 36.179 11.0173 35.582 11.6006 35.1582C12.1885 34.7298 13.0133 34.5156 14.0752 34.5156H15.3057V33.9346C15.3057 33.4925 15.1735 33.1416 14.9092 32.8818C14.6449 32.6175 14.2552 32.4854 13.7402 32.4854C13.2891 32.4854 12.9108 32.5993 12.6055 32.8271C12.3001 33.055 12.1475 33.3307 12.1475 33.6543H10.876C10.876 33.2852 11.0059 32.9297 11.2656 32.5879C11.5299 32.2415 11.8854 31.9681 12.332 31.7676C12.7832 31.5671 13.2777 31.4668 13.8154 31.4668C14.6676 31.4668 15.3353 31.681 15.8184 32.1094C16.3014 32.5332 16.5521 33.1188 16.5703 33.8662V37.2705C16.5703 37.9495 16.6569 38.4896 16.8301 38.8906V39H15.5039ZM13.4053 38.0361C13.8018 38.0361 14.1777 37.9336 14.5332 37.7285C14.8887 37.5234 15.1462 37.2568 15.3057 36.9287V35.4111H14.3145C12.765 35.4111 11.9902 35.8646 11.9902 36.7715C11.9902 37.168 12.1224 37.4779 12.3867 37.7012C12.651 37.9245 12.9906 38.0361 13.4053 38.0361ZM24.6025 39H23.3379V32.6494H19.9336V39H18.6621V31.6035H24.6025V39ZM31.418 31.6035H32.6826V39H31.418V33.6064L28.0068 39H26.7422V31.6035H28.0068V37.0039L31.418 31.6035ZM37.6797 38.1045C38.1309 38.1045 38.5251 37.9678 38.8623 37.6943C39.1995 37.4209 39.3864 37.0791 39.4229 36.6689H40.6191C40.5964 37.0928 40.4505 37.4961 40.1816 37.8789C39.9128 38.2617 39.5527 38.5671 39.1016 38.7949C38.6549 39.0228 38.181 39.1367 37.6797 39.1367C36.6725 39.1367 35.8704 38.8018 35.2734 38.1318C34.681 37.4574 34.3848 36.5368 34.3848 35.3701V35.1582C34.3848 34.4382 34.5169 33.7979 34.7812 33.2373C35.0456 32.6768 35.4238 32.2415 35.916 31.9316C36.4128 31.6217 36.9984 31.4668 37.6729 31.4668C38.5023 31.4668 39.1904 31.7152 39.7373 32.2119C40.2887 32.7087 40.5827 33.3535 40.6191 34.1465H39.4229C39.3864 33.668 39.2041 33.276 38.876 32.9707C38.5524 32.6608 38.1514 32.5059 37.6729 32.5059C37.0303 32.5059 36.5312 32.7383 36.1758 33.2031C35.8249 33.6634 35.6494 34.3311 35.6494 35.2061V35.4453C35.6494 36.2975 35.8249 36.9538 36.1758 37.4141C36.5267 37.8743 37.028 38.1045 37.6797 38.1045ZM46.6074 39C46.5345 38.8542 46.4753 38.5944 46.4297 38.2207C45.8418 38.8314 45.14 39.1367 44.3242 39.1367C43.5951 39.1367 42.9958 38.9316 42.5264 38.5215C42.0615 38.1068 41.8291 37.5827 41.8291 36.9492C41.8291 36.179 42.1208 35.582 42.7041 35.1582C43.292 34.7298 44.1169 34.5156 45.1787 34.5156H46.4092V33.9346C46.4092 33.4925 46.277 33.1416 46.0127 32.8818C45.7484 32.6175 45.3587 32.4854 44.8438 32.4854C44.3926 32.4854 44.0143 32.5993 43.709 32.8271C43.4036 33.055 43.251 33.3307 43.251 33.6543H41.9795C41.9795 33.2852 42.1094 32.9297 42.3691 32.5879C42.6335 32.2415 42.9889 31.9681 43.4355 31.7676C43.8867 31.5671 44.3812 31.4668 44.9189 31.4668C45.7712 31.4668 46.4388 31.681 46.9219 32.1094C47.4049 32.5332 47.6556 33.1188 47.6738 33.8662V37.2705C47.6738 37.9495 47.7604 38.4896 47.9336 38.8906V39H46.6074ZM44.5088 38.0361C44.9053 38.0361 45.2812 37.9336 45.6367 37.7285C45.9922 37.5234 46.2497 37.2568 46.4092 36.9287V35.4111H45.418C43.8685 35.4111 43.0938 35.8646 43.0938 36.7715C43.0938 37.168 43.2259 37.4779 43.4902 37.7012C43.7546 37.9245 44.0941 38.0361 44.5088 38.0361ZM55.043 32.6289H52.5615V39H51.2969V32.6289H48.8633V31.6035H55.043V32.6289ZM57.6543 34.1533H59.5752C60.4137 34.1624 61.0768 34.3812 61.5645 34.8096C62.0521 35.238 62.2959 35.819 62.2959 36.5527C62.2959 37.291 62.0452 37.8835 61.5439 38.3301C61.0426 38.7767 60.3682 39 59.5205 39H56.3896V31.6035H57.6543V34.1533ZM57.6543 35.1855V37.9678H59.5342C60.0081 37.9678 60.375 37.847 60.6348 37.6055C60.8945 37.3594 61.0244 37.0244 61.0244 36.6006C61.0244 36.1904 60.8968 35.8555 60.6416 35.5957C60.391 35.3314 60.0378 35.1947 59.582 35.1855H57.6543Z" fill="white"/>
<g clip-path="url(#clip0_0_691)">
<path d="M41.6562 3.125H21.3438C20.0513 3.125 19 4.17633 19 5.46877V19.5313C19 20.8237 20.0513 21.875 21.3438 21.875H41.6562C42.9487 21.875 44 20.8237 44 19.5313V5.46877C44 4.17633 42.9487 3.125 41.6562 3.125ZM41.6562 4.68749C41.7624 4.68749 41.8634 4.70952 41.9557 4.74798L31.5 13.81L21.0443 4.74798C21.1366 4.70957 21.2376 4.68749 21.3437 4.68749H41.6562ZM41.6562 20.3125H21.3438C20.9127 20.3125 20.5625 19.9623 20.5625 19.5312V6.39877L30.9881 15.4343C31.1353 15.5616 31.3177 15.625 31.5 15.625C31.6823 15.625 31.8647 15.5617 32.0119 15.4343L42.4375 6.39877V19.5313C42.4375 19.9623 42.0873 20.3125 41.6562 20.3125Z" fill="white"/>
</g>
<defs>
<clipPath id="clip0_0_691">
<rect width="25" height="25" fill="white" transform="translate(19)"/>
</clipPath>
</defs>
</svg>
